<?xml version="1.0" encoding="UTF-8"?>
<svg id="Layer_1" data-name="Layer 1" xmlns="http://www.w3.org/2000/svg" viewBox="0 0 383.23 386.24">
  <defs>
    <style>
      .cls-1 {
        fill: none;
      }

      .cls-2 {
        stroke: #000;
        stroke-miterlimit: 10;
        stroke-width: .25px;
      }

      .cls-2, .cls-3 {
        fill: #dabd98;
      }
    </style>
  </defs>
  <path class="cls-3" d="M354.12,288c-.33.87-.66.87-1,0-3.37-.58-2.07-3.73,1-2,.83,0,.83.67,0,2Z"/>
  <path class="cls-3" d="M353.12,290c-5.65,13.03-9.19-.15,0-2,.83.15.57,1.32,0,2Z"/>
  <path class="cls-3" d="M349.12,300c-3.62-2.12,1.33-6.52,4-7,2.29,1.18-1.84,8.01-4,7Z"/>
  <path class="cls-3" d="M347.12,303c-2.88-1.57-.85-4.6,2-3,2.69-.05-.39,4.97-2,3Z"/>
  <path class="cls-3" d="M346.12,304c-1.38-1.46-.74-2.08,1-1,1.23,1.41.67,1.95-1,1Z"/>
  <path class="cls-3" d="M345.12,305c-1.41-1.66-.82-2.27,1-1,1.45,1.41.79,2.05-1,1Z"/>
  <path class="cls-3" d="M339.12,310l-1,1c-.33.64-.67.64-1,0-5.34-4.16,6.45-7.59,2-1Z"/>
  <path class="cls-3" d="M336.12,312c-1.39-1.45-.75-2.06,1-1,.38.88-.11,1.24-1,1Z"/>
  <path class="cls-3" d="M26.12,109c5.6,2.19-3.78,6.49-1,0,.29-.52.63-.51,1,0Z"/>
  <path class="cls-3" d="M335.12,313c-1.32-1.47-.69-2.07,1-1,.77.84.15,1.28-1,1Z"/>
  <path class="cls-3" d="M335.12,315l-1,1-1,1h-1c-2.25-2.15.3-5.48,3-4,.99-.1.99.57,0,2Z"/>
  <path class="cls-3" d="M332.12,318h-1c-1.45-1.43-.86-2.01,1-1v1Z"/>
  <path class="cls-3" d="M282.12,358c.87.33.87.66,0,1l-1,1-2,1-2,1c-2.25,2.45-6.42,4.93-9,3,1.12-4.25,9.84-8.27,14-7Z"/>
  <path class="cls-3" d="M331.12,319c-.31.87-.65.87-1,0-1.53-1.64-.93-2.23,1-1v1Z"/>
  <path class="cls-3" d="M55.12,320c-1.04.85-1.45.33-1-1,1.43-1.41,2.01-.82,1,1Z"/>
  <path class="cls-3" d="M75.12,339c-1.18.63-1.61.17-1-1,1.63-1.41,2.21-.85,1,1Z"/>
  <path class="cls-3" d="M56.12,321c-1.05.81-1.47.29-1-1,1.44-1.37,2.01-.77,1,1Z"/>
  <path class="cls-3" d="M57.12,322c-.98.96-1.46.34-1-1,.98-.27,1.32.06,1,1Z"/>
  <path class="cls-3" d="M58.12,323c-1.13.99-1.61.39-1-1,1.46-1.28,1.96-.73,1,1Z"/>
  <path class="cls-3" d="M74.12,338c.3,1.16-.37,1.16-2,0l-1-1-1-1c-.7-.25-.67-.59,0-1,1.86-2.77,5.8.16,4,3Z"/>
  <path class="cls-3" d="M70.12,335c-.92.58-1.31.04-1-1,1.48-1.52,2.06-.92,1,1Z"/>
  <path class="cls-3" d="M69.12,334c-1.03.87-1.53.29-1-1,1.36-1.43,1.9-.86,1,1Z"/>
  <path class="cls-3" d="M68.12,333c-1.01.93-1.45.35-1-1,1.54-1.22,2.08-.67,1,1Z"/>
  <path class="cls-3" d="M67.12,332c-.98.85-1.4.27-1-1,1.32-1.44,1.85-.85,1,1Z"/>
  <path class="cls-3" d="M59.12,324c-1.27,1.42-1.73.81-1-1,.93-.32,1.25.02,1,1Z"/>
  <path class="cls-3" d="M66.12,331c.43,1.36-.24,1.36-2,0l-1-1-1-1-1-1-1-1-1-1c-1.58-.25-1.79-1.88,0-2,3.63-.71,7.72,3.36,7,7Z"/>
  <path class="cls-3" d="M63.12,330c-.89-.58-.81-.83-1-1,.26.27.6.56,1,1Z"/>
  <path class="cls-3" d="M62.12,329c-.47-.43-.58-.53-1-1,.46.42.6.58,1,1Z"/>
  <path class="cls-3" d="M61.12,328c-.17-.19-.42-.11-1-1,.71.54.8.82,1,1Z"/>
  <path class="cls-3" d="M60.12,327c-.04-.06-.51.16-1-1,1.17.42.94.96,1,1Z"/>
  <path class="cls-3" d="M64.12,331c-1.1-.46-.94-.96-1-1,.23.25.58.54,1,1Z"/>
  <path class="cls-3" d="M66.12,331c.07.02.38.49,1,1,.11.09.54.59,1,1,.18.16.11.41,1,1,.06.04.03.39,1,1,.12.25-.11.68,0,1-3.69-1.25-3.62-2.38-6-5,.46.19,1.48-.18,2,0Z"/>
  <path class="cls-3" d="M71.12,337c-.04-.06-.6.21-1-1,1.19.4.91.93,1,1Z"/>
  <path class="cls-3" d="M72.12,338c-.89.12-.88-.91-1-1,.05.06.58.52,1,1Z"/>
  <path class="cls-3" d="M74.12,338c.2.23.11,1.07,1,1l5.5,7c-2.98-2.99-5.72-4.78-8.5-8,.62.11,1.5-.16,2,0Z"/>
  <path class="cls-3" d="M330.12,319c.23-.16.83.17,1,0-.07.09.22,1.21-.47,2.02-1.77,2.09-4.21,3.88-6.03,5.98l5.5-8Z"/>
  <path class="cls-3" d="M277.12,362c-.13.1-2.19,2.55-1.5,3l3.89-1.11,15.24-8.76.39,1.39-19.63,11.37c-7.8,2.58-15.16,6.57-23.01,8.99-.88.27-1.87,0-2.76.24-1.19.33-3.13,1.53-4.22,1.78-.93.22-3.69.8-3.4-.9,1.8.08,3.67-.58,5.35-1.15,7.26-2.5,15.05-5.04,22.04-7.96.84-.35,1.34-1.22,2.24-1.79s3.14-.18.87-2.1c-4.05,2.76-8.59,4.6-13.5,5l8.41-4.12c.62-.06.52-.84.59-.88.64-.15,1.52.14,2.39-.09,1.43-.39,3.63-2.11,5.25-2.8.58-.25,1.15,0,1.36-.11h0Z"/>
  <path class="cls-3" d="M331.12,319c.17-.17-.17-.83,0-1h1c-.44.51-.84.82-1,1Z"/>
  <path class="cls-3" d="M282.12,359c.15-.26-.16-.9,0-1,.29-.19,1.92.31,2.5-1l.5.5c-.86,1.59-2.08,1.18-3,1.5Z"/>
  <path class="cls-3" d="M332.12,318v-1c.17-.17.82.17,1,0-.42.46-.83.81-1,1Z"/>
  <path class="cls-3" d="M281.12,360c.22-.25-.11-.62,1-1-.34.6-.04.66-1,1Z"/>
  <path class="cls-3" d="M54.12,319c.62.94.96.94,1,1,.58.89.83.81,1,1,.43.48.77.75,1,1,.37.4.91.89,1,1,.51.62.98.93,1,1,.18.52-.19,1.54,0,2-.47-.17-1.33.19-1.94-.04-.71-3.51-4.83-5.66-7.06-8.46.91-1.44,3.07.83,4,1.5Z"/>
  <path class="cls-3" d="M333.12,317c.24-.23.75-.74,1-1-.39.43-.81.78-1,1Z"/>
  <path class="cls-3" d="M334.12,316c.37-.39.98-.93,1-1-.4.43-.77.75-1,1Z"/>
  <path class="cls-3" d="M281.12,360c-1.29,1.41-1.57.76-2,1,.05-.02-.1-.53.61-.89.53-.27,1.09,0,1.39-.11Z"/>
  <path class="cls-3" d="M279.12,361c-.69.39-1.9.92-2,1,.05-.02-.15-.59.57-.93.53-.26,1.17.06,1.43-.07Z"/>
  <path class="cls-3" d="M335.12,315c.18-.51-.18-1.49,0-2,.02-.07.63-.61,1-1,.17-.18.94-.96,1-1,.21-.16.79.16,1,0-1.41,2.81-1.11,1.96-3,4Z"/>
  <path class="cls-3" d="M26.12,109c-.16.16-.88-.17-1,0,.38-.43.54-1.97,1,0Z"/>
  <path class="cls-3" d="M353.12,293c.63-.57,1.78-.95,2.52-1.98,1.63-2.31,2.67-5.94,4.99-8.01,1.82,1.33-1.15,2.59-1.41,3.59-.24.9.07,1.95-.17,2.83-.22.78-2.79,3.46-3.42,4.58-10.62,18.9-26.01,34.85-41.48,48.54l-4.01,1.97c7.63-7.57,16.36-14.31,23.51-22.49,3.5-4,9.85-12.17,11.49-17.01.39-.37.49-.37,1-1,.35-.34.78-.8,1-1,.41-.37,1.5-.45,1.95-1.58.21-.53-.05-1.09.05-1.42,2.22-1.98,3.57-3.96,4-7l-.02-.02Z"/>
  <path class="cls-3" d="M354.12,288c.19-.35-.12-1.41,0-2l1.5-1c1.38.01-1.23,2.55-1.5,3Z"/>
  <path class="cls-3" d="M338.12,311c.53-1.06.69-.73,1-1-.26,1.12-.68.76-1,1Z"/>
  <path class="cls-3" d="M353.12,290c.02-.6-.14-1.76,0-2,.09-.14.92.14,1,0-.21.34.45,2-1,2Z"/>
  <path class="cls-3" d="M18.63,179c-.65,0-.65-1,0-1s.65,1,0,1Z"/>
  <path class="cls-3" d="M28.63,135c-.65,0-.65-1,0-1s.65,1,0,1Z"/>
  <path class="cls-3" d="M24.25,171.62c-1.98,15.78-1.89,32.6.92,47.85.35,1.92.55,4.29-2.04,3.54.65-2.21-.76-3.76-1.04-5.47-.98-6.14-.67-14.38-.93-21.07-.73-18.55,1.18-36.75,7.83-55.12.58-1.62-.85-2.84,2.14-2.35,1.01,2.36-1.72,3.67-1.82,4.5-1.11,8.91-3.9,18.82-5.06,28.12Z"/>
  <path class="cls-3" d="M38.13,118.99c-.84,2.8-.68,5.63-2.89,7.61l-3.11,11.39h0c-2.88.6-2.06-1.27-1.91-3.41,2-4.33,3.96-8.65,6.08-12.92.57-1.16.5-2.89,1.83-2.67Z"/>
  <rect class="cls-3" x="39.13" y="116" width="1" height="2"/>
  <path class="cls-3" d="M40.63,115c-.65,0-.65-1,0-1s.65,1,0,1Z"/>
  <polygon class="cls-3" points="43.12 111.5 41.62 113 41.13 112.5 42.63 111 43.12 111.5"/>
  <path class="cls-3" d="M43.13,110c-.65-1.25,1.6-3.49,2-3,.65,1.25-1.6,3.49-2,3Z"/>
  <rect class="cls-3" x="138.13" y="26" width="2" height="1"/>
  <path class="cls-3" d="M141.63,26c-.65,0-.65-1,0-1s.65,1,0,1Z"/>
  <rect class="cls-3" x="152.13" y="364" width="3" height="1"/>
  <path class="cls-3" d="M162.13,365v1c-2.28.44-3.73-1.41-6-1v-1l6,1Z"/>
  <polygon class="cls-3" points="167.13 364 164.13 364 164.13 363.5 165.63 362 167.13 364"/>
  <rect class="cls-3" x="168.13" y="363" width="2" height="1"/>
  <rect class="cls-3" x="171.13" y="363" width="1" height="2"/>
  <path class="cls-3" d="M183.13,365l-3.64.88c-1.47-.76-4.99.39-5.36-1.88l9,1Z"/>
  <path class="cls-3" d="M185.63,18c-.65,0-.65-1,0-1s.65,1,0,1Z"/>
  <path class="cls-3" d="M192.63,368c-.65,0-.65-1,0-1s.65,1,0,1Z"/>
  <rect class="cls-3" x="227.13" y="21" width="3" height="1"/>
  <rect class="cls-3" x="231.13" y="22" width="2" height="1"/>
  <rect class="cls-3" x="235.13" y="23" width="2" height="1"/>
  <path class="cls-3" d="M240.77,25.86c-.97-.36-2.9-.7-2.64-1.86l7,2c.31,1.94-3.75.09-4.36-.14Z"/>
  <path class="cls-3" d="M246.63,28c-.65,0-.65-1,0-1s.65,1,0,1Z"/>
  <path class="cls-3" d="M248.63,358c-.65,0-.65-1,0-1s.65,1,0,1Z"/>
  <path class="cls-3" d="M259.12,351.01l-3.6,2.88c-1.98-.07-3.35,1.3-5,2-.78.33-1.91-.05-2.8.2-1.6.45-4.85,3.13-8.21,3.85-1.12.24-1.89-1.39-3.37-.94l1,2c-1.13,0-2.24-.1-3.37.13-4.62.94-5.41,1.76-10.13,1.79-3.49.03-8.71,1.82-12.46,2.12l-.08,1.91c-5.78,2.6-10.14-.47-15.42-.99-3.34-.33-7.13.31-10.54.04-.59-4.21,3.84-1.1,5.48-.95,1.53.14,5.24-.97,7-1.08,12.97-.82,25.29-1.43,37.9-5.09l23.6-7.87Z"/>
  <path class="cls-3" d="M286.13,294h-38l-58-119c-1.62-.26-1.56.13-2.12,1.36-15.89,35.13-33.37,70.17-50.03,105-1.99,4.17-4.69,8.28-5.86,12.64h-36l76.34-151.39-29.18-58.26c-.51-1.19-1.42-1.93-1.15-3.35h38.5l105.5,213Z"/>
  <path class="cls-3" d="M332.12,96c-1.81,1.63-6.51-6.81-7.48-8.01-3.38-4.18-9.79-12.47-13.5-15.52-3.29-2.7-6.59-6.39-11-10-1.65-1.35-9.05-7.96-10.98-9-1.36-.74-3-.19-4.03-1.96,1.99-2.49,1.49-.91,2.99,0,8.95,5.51,17.07,12.94,24.51,20.48,5.99,6.08,11.57,12.88,17,20,.86,1.13,1.54,2.83,2.49,4.01Z"/>
  <path class="cls-3" d="M347.12,124c-1.58-.25-1.86-1.88-2.48-3.01-3.49-6.25-6.59-12.9-9.97-19.03-.88-1.6-3.97-2.38-3.54-4.96,2.08-.39,2.37.93,3.16,2.34,3.69,6.57,8.23,12.54,11.71,19.29.96,1.87,1.45,3.19,1.12,5.37Z"/>
  <path class="cls-3" d="M350.63,136c-.65,0-.65-1,0-1s.65,1,0,1Z"/>
  <path class="cls-3" d="M354.13,137c-1.29.23-1.32-1.53-1.84-2.65s-1.28-2.05-1.16-3.34l-2,3-2-9c2.43.19,1.85,3.8,2.04,3.96h0c.16.13,1.25-.04,1.99.48.45.32,2.07,2.96,2.97,4.05,1.47,1.77-.21,1.47,0,3.5Z"/>
  <path class="cls-3" d="M354.63,140c-.65,0-.65-1,0-1s.65,1,0,1Z"/>
  <path class="cls-3" d="M355.13,150c-3.27-1.85-3.06-6.84-3-10l1.84,3.66,1.16,6.34Z"/>
  <path class="cls-3" d="M355.13,243c.02,3.05-1.88,5.77-2.88,8.62-5.08,14.45-20.8,46.94-32.59,56.41-1.12.89-2.34.93-2.48,1.02-.29.29-1.15,3.99-1.09,4.91l-1.87.11-.11,1.89-2.95.07c-4.5,6.49-13.1,12.69-19.03,17.44-1.88,1.51-3.4,4.3-5.99,2.52l-.03,2.99c-2.99-.4-6.75,4.49-8.57,4.99-1.01.28-2.13-1.33-2.39-.98-.43,4.3-6.93,5.42-10.52,7.01h-4.5c1.43,0,2.81-.78,4.01-1.49,10.3-6.12,20.56-11.71,29.98-19.02,26.52-20.59,43.3-44.97,55.87-76.13,1.33-3.3,1.6-8.27,5.14-10.36Z"/>
  <path class="cls-3" d="M358.09,226.46c-.42,5.23,1.17,11.94-3.96,15.54-.06-1.84,1.11-2.28.88-4.39-.41-3.78,1.17-4.79,2-8.23.3-1.24-.08-2.52.24-3.76l1.88-5.62c.83,2.43-.9,4.76-1.04,6.46Z"/>
  <path class="cls-3" d="M360.13,153v4h-1c.34-1.69-.28-2.62-1-4h2Z"/>
  <path class="cls-3" d="M362.08,190.37c-.89,4.34-.83,9.56-.97,14.11-.1,3.22.76,4.1.14,7.14-.43,2.09-.91,4.27-1.1,6.39h-.02c-3.62.57-1.14-2.05-.98-4.49.62-9.56,1.53-19.28,1.02-29.05-.36-6.75-1.91-16.64-3.14-23.86-.49-2.85-3.03-5.86-1.89-9.61.94-.43,1.86,2.3,1.91,2.59,1.79,11.07,5.1,22.08,4.04,32.89-.19,1.88,1.18,2.96.99,3.89Z"/>
  <path class="cls-3" d="M379.12,206.99v-8l-2,1c-.24-4.8.32-9.75.04-14.54-2.07-35.54-13.67-69.59-33.52-99.48-2.27-3.43-6.55-10.14-9-13-.95-1.11-1.86-2.16-3.51-1.99l3-1.5c-1.54-1.82-2.94-3.68-4.5-5.5-.68-.8-2.64-2.01-1-3,1.93,2.39,4.02,4.66,6.01,6.99.48.56.5,1.46.98,2.02,2.16,2.56,6.07,4.7,6.51,7.99h2c.13-.11-1.13-2.45-1.47-3.03-2.85-4.82-7.25-9.63-10-12.98-5.88-7.17-14.5-13.67-21.54-19.48-3.46-2.85-6.8-5.86-10.49-8.51l-.5,2.5,18,14c-1.34,1.83-2.83-1.21-3.98-2.02-2.86-2.01-3.48-.27-4.42-.52-7.81-4.68-15.38-10.61-23.23-15.83-13.51-6.66-26.87-13.87-41.37-18.13.17-2.58,2.84-.24,3.6-.1,1,.19,3.67.82,3.4-.9l-16-4,2,2c-.84-.09-1.79.17-2.54.04-10.99-1.95-22.75-4.42-33.93-5.07-5.14-.29-10.4.29-15.54.04l4-1c-1.52-4.04-5.13-1.14-7.46-.96-5.7.46-11.35.6-17.05.95-1.55.1-2.16.22-3.48,1.02l2-2-1.54-2c-2.54,1.75-3.43-.06-4.96-.08-1.07-.01-1.61.87-2.12.95-14.59,2.33-27.4,7.68-41.34,12.17l-.08,1.9c-5.95,1.36-13.6,5.25-18.6,8.94-2.95,2.18-1.11,1.88-5.77,3.2-2.41.68-18.8,13.94-21.6,16.4s-5.21,5.5-7.99,8.01c-.15.75,1.06.69,1.5.5,1.3-.57,4.82-5.12,6.49-6.51l17.01-12.99,18.5-11.5c1.81,1.42-2.03,3.62-3.49,4.51-7.08,4.3-15.64,8.61-22.02,13.98-1.1.94-2.29,1.9-1.98,3.52,1.52-.94,2.97-2.03,4.52-2.97.85-.53,2.07-2.59,2.47-.03l-6.01,3.49-21.49,21.51,1-3,5-6c-2.98,3.02-6.04,5.96-9.01,8.99-.47.48-.49,1.49-.96,2.04-2.16,2.49-6.82,5.25-9.04,7.96-.55.69-2.99,4.46-2.49,5.01l3-2c.58,2.04-1.62,2.61-2.51,3.99-4.21,6.51-12.05,18.15-14.49,25.01v.03c-.17.46.08,1.37-.01,2h-1c.08-.58-.13-1.64-.02-1.95,0-.02.01-.04.02-.05-.91,1.03-2.04,1.95-2,3.5-.13,1.04,3.18-1.69,2,1-9.67,22.03-16.53,43.95-18.03,67.97-.21,3.28.73,9.42,0,12-.13.49-1.7,1.86-1.96,1.54l-1-8v27c-.94.44-1.87-2.34-1.91-2.59-.29-1.93.1-3.89-.18-5.82-.04-.25-.97-3.03-1.91-2.59.12,1.82-.16,3.72-.03,5.53.62,8.65,2.26,18.16,4.29,26.94,2.03,8.78,4.87,16.59,6.85,24.92l8.02,17.98,4.38,6.62-8.4-19.59c-.23-1.13-.09-2.28-.1-3.41.15.12.8-.19.94.03,1.25,1.98.86,6.88,4.05,7.97l-3.07-9.43-1.93-1.57v3c-3.82-2.92-5.96-15.15-7.12-20.38-.11-.51-.74-1.05-.91-2.09-.14-.87-.56-3.87,1.04-3.54l2.11,10.39c2.9,3.26,1.38,9.52,4.89,11.61.73-3.57-2.18-6.35-2.89-9.61-.2-.89-.88-4.62.89-4.39.57,2.62,1.95,5.09,2.88,7.62,3.68,10.01,7.2,18.36,11.99,28.01,1.61,3.26,3.68,6.6,5.12,9.88,1.11,2.53-2.05.28-2,1,1.15,2.15,2.27.44,3,.94,2.44,1.69,5.46,8.66,7.5,11.56,3.93,5.6,8.82,10.47,12.46,15.93h.01v.02s.01.02.02.04c.01,0,.01.01.01.01.01.01.03.02.04.03.63.46.82.78.91.91,0,.02.02.03.03.04h.01s.01.02.01.02c.02.02.04.03.06.05.42.35.64.62.79.8.01,0,.01.01.01.01.05.05.08.09.12.12,0,.01.01.01.01.01h.01c.07.07.13.12.19.18.04.04.08.08.12.12.11.09.2.18.27.27.02.01.03.02.04.04.15.15.26.28.36.38l.02.02c.11.1.21.2.3.28.01,0,.01.02.02.02.27.28.47.5.66.68l.02.02s.09.09.13.12c0,.01,0,.01,0,.01.01.01.01.02.02.02.01.02.02.03.03.04.13.12.24.23.35.35.05.05.1.1.14.14l.02.02c.1.1.18.19.27.27t.02.02l.02.02c2.48,2.34,4.62,4.45,6.95,6.95.01.01.02.02.03.03l.02.02c.07.07.15.15.23.22l.02.02s.02.02.03.04c.16.14.34.32.55.54.01,0,.01.01.01.01.04.04.09.09.13.14l.02.02c.07.08.16.16.27.26.03.02.06.05.1.09.09.08.19.18.3.3.06.05.11.1.16.16.05.05.1.11.15.17l.02.02s.05.05.09.08c.15.12.44.3.84.84h.01s.03.04.05.06h0s.01.02.01.02c0,.01.01.01.02.01h.01c.11.02.46-.02.95.95,0,0,.01.01.01.02s.01.01.01.02c0,0,.01,0,.01.01,1.96,1.22,1.78.4,3.96,2.95,0,.01.01.02.02.03h.01s.01.01.01.01h0c1,.34.96.83.97.97,0,.02,0,.03.01.03.01.01.03.01.04.02,3.76,1.79,5.62,4.14,8.96,6.48,17.21,12.1,35.58,20.88,55.62,27.38l9.38,2.12c.26,1.72-2.4,1.09-3.4.9-.75-.15-3.43-2.48-3.6.1l26,6c.03,2.21-2.15.6-3,.5-3.69-.45-7.38-.82-11-1.5-.28,1.14,1.73,1.54,2.64,1.86,3.66,1.27,5.48.69,8.9,1.1,3.42.41,8.62,1.85,11.93,2.07,5.7.37,11.8-.35,17.54-.04.23-1.75-2.28-.97-3.5-1-1.82-.04-3.66.06-5.47-.03l-.07-1.92c-1.39.1-2.11-.91-3.42-1.09-.88-.13-4.8-.63-4.54,1.03l6,1-15-1h4.5l.5-2c-1.45-.06-2.95.16-4.41-.09-.32-.05-3.02-.96-2.59-1.91,2.82.11,5.58.72,8.38,1.12,12.75,1.81,24.76,1.17,37.24-1,2.74-.48,5.61-.94,8.38-1.12l-3,2h6l-.51-2,5.5,1-4-2,8-1-.46,2.04,5.46-1.04-3-2,8.38-1.12c8.26-2.68,16.32-6.98,24.61-8.89h0c4.58-2.66,9.81-4.62,13.99-7h0c13.26-7.56,28.71-19.01,38.46-30.01,2.54-2.86,6.45-6.81,9.53-8.99h0c-.16-.91.96-.94,1-1h0c.57-.91.96-.94,1-1h0c1.28-1.9.91-1.85,3-4h0s.01-.02.02-.02c.03-.04.06-.07.1-.11.17-.17.39-.38.57-.56.05-.06.11-.11.16-.16.03-.04.06-.07.09-.09.02-.03.04-.05.05-.06h0c.34-.4.67-.69.85-.85.02-.02.03-.04.05-.05.02-.02.04-.04.06-.05,0,0,0-.01.01-.01.01-.02.02-.03.03-.04h0c.18-.3-.22-1.99,1.5-3h.5c-.06.65.13,1.44,0,2h0s.01-.01.01-.02h.01c1.9-1.67,4.14-3.26,5.97-4.98h0c.4-1.18.81-.82,1-1h0c.51-.62.96-.94,1-1,.71-1.14-.15-1.08,2-3h0c1.11-3.42,1.27-4.54,4-7,.13-.91-.04-2,0-2.98v-.02l-5,5.5,5-7.5c-.52-1.5.94-1.89,1-2,.1-.19-.18-.8.12-1.35,2.22-4.17,4.22-8.46,6.37-12.66l.36,1.36-3.36,8.64c1.71-1.74,7.77-11.58,6.5-13l-2,.5c.24-3.39,2.72-6.91,3.86-10.14,3.87-11,6.34-22.62,8.1-33.9.36-2.26,1.79-4.61,1.04-7.47l2,1.01c-.05-2.12,2.89-4.36-.97-4.03l-.02-11.97,2,.5,1,3.5ZM211.6,369.96c-6.14.67-12.8,1.53-18.94,2.09-1.69.15-6.14-.91-7.99-1.08-1.48-.13-3.04.14-4.53.03l2-2-8-1,2,2.5c-.73,1.63-2-.32-2.61-.39-40.25-5.19-71.29-18.97-101.92-46.08-.97-.86-2.14-2.04-3-3.02-11.22-12.69-23.82-27.6-32.34-43.63-2.71-5.1-7.6-15.62-9.04-20.96-.23-.85-.76-3.72.91-3.42l2.5,2.91c-1.06-1.44-1.5-3.23-2-4.91-.31-1.03-1.59-3.03.5-3l5.91,13.59c1.17,8.99,8.99,16.81,11.14,24.86.28,1.05,1.83,1.68,2.93,1.57l.02,3.98,2.99.02c.11.76.91,3.8,1.06,3.94.69.62.41-.87,2.41,2.07,1.42,2.08,7.97,12.32,8.59,12.93,1.54,1.52,3.15,1.15,5.92,4.58,1.9,2.35,5.37,4.32,7.56,7.45,2.03,2.91,9.55,7.41,13.46,10.54,1.09.87,2.49-.24,2.05,2.42,2.2.29,2.76,1.75,4.95.05.03.79-.14,1.64.09,2.42.64,2.15,5.71,2.83,7.3,3.7,4.6,2.5,8.12,4.1,12.65,6.35,1.87.93,5.75,5.26,6.52,5.48,1.51.43,3.76-.16,5.44.06l-2,2c1.96-.03,3.23-1.6,5.44-.94.77.23,1.25,1.61,2.14,1.86,1.78.5,4.51.78,6.42,1.1l-.96,1.49,7.91.54.08,1.91,13.46,2.05.5-2c-4.13,1.03-6.06-2-9.61-2.89-1.24-.31-2.52.09-3.76-.24-60.65-16.01-105.08-62.39-121.51-122.49-.8-2.91-.79-7.96-2.18-10.82-.31-.63-1.16-1.58-1.93-1.57l-.5,3-2-3-2.5,2c0-1.13.1-2.24-.13-3.37-2.22-10.81-3.31-21.94-2.91-33.16.54-15.15,3.72-31.86,7.91-47.1.9-3.26,2.5-6.06,3.04-7.96.54-1.9.44-4.55,1.58-6.42l.51,4.01,1.95-1.55,3.05-8.95-4,2c3.13-5.42,5.16-11.37,8.12-16.88,20.98-38.91,57.89-69.06,100.25-81.75,2.34-.7,4.52-2.36,7.12-1.88l-.5,2,4.51-.99c2.85-.38.8,1.56-.08,1.93-1.55.64-4.24,1.36-6.05,1.95-18.99,6.18-33.61,13.02-50.38,24.62-12.81,8.86-24.22,20.99-34.07,33.44l-1.85.12-11.58,19.94c3.47-2.14,3.98-6.19,5.99-9.01,19.35-27.19,52.73-55.33,84.9-65.1.87-.26,2.61-1.73,3.11-1.72,4.17.14,5.83-1.98,7.99-1.97,6.73.04,15.89-3.78,23.15-5.14,1.04-.19,1.67,1.05,2.72.86,2.5-.45,4.13-.85,7.01-1.05,8.66-.61,18.39-.75,28.16.09,25.59,2.21,48.68,11.22,71.09,24.91,1.81,1.11,3.05,2.57,5.38,2.12l-9.63-6.87c-22.44-12.88-52.13-23.19-77.9-23.16-3.39,0-5.98-1.04-7.98-1.04-5.77,0-14.58,4.68-21.48,1.08l-.05,1.96-14.97,2.03,3-2-4-1c2.31-.51,5.19-.65,7.37-1.13,3.88-.85,8.17-2.37,12.09-2.91,48.93-6.68,100.59,10.18,137.55,43.52,3.16,2.85,6.04,7.53,8.06,9.45h.03c.59.57.46-.27,2.39,2.08,1.93,2.35,5.03,4.53,7.04,6.98,9.83,11.97,21.78,31.26,27.35,45.65,2.37,6.13,3.74,12.78,6.05,18.95l-.91,1.91-4-4.5c.04,4.33,1.23,9.12,5.5,11l-.5-4c1.03-.32,1.68,1.88,1.9,2.6.82,2.69.77,6.18,2.14,8.86-.08.99-.09,1.93.09,2.91,18.27,100.97-50.28,196.44-152.66,207.59Z"/>
  <path class="cls-3" d="M40.12,308c-.23,2.38,2.26,3.39,3.51,4.99,11.49,14.64,21.92,23.38,36.5,34.5,2.2,1.68,4.62,4.35,6.98,6.02,4.51,3.18,9.5,5.79,14,9l-4.37-1.63c-1.62-1.71-3.75-2.23-5.63-3.37-3.35-2.02-5.7-5.33-9.95-5.56.43-2.66-.96-1.54-2.05-2.42-7.24-5.81-17.44-12.76-22.46-19.54-.87-1.17-2.62-2.44-4-3.99-3.93-4.41-8.44-8.43-12.04-12.99-1.13-1.43-4.48-5.88-.49-5.01h0Z"/>
  <path class="cls-3" d="M380.12,164l1.88,4.62c.42,1.92-.11,4.02.08,5.92,1.16,11.18,1.26,22.53,1.07,34l-2.54,10.46,1.43-16.64c.36-10.31.15-19.66-1.86-29.99-.2-1.01.99-1.71,1.01-2.86.02-1.27-1.9-3.41-1.07-5.5h0Z"/>
  <path class="cls-3" d="M201.12,386c.53-2.15,1.89-1.79,3.49-2.01,5.01-.67,9.76-1.45,15.05-.95l14.46-2.54-5.63,2.37c-2.31-.44-4.06.87-5.84,1.16-4.7.76-9.27.54-14.07.93-1.93.15-4.74,1.91-7.46,1.04h0Z"/>
  <path class="cls-3" d="M43.2,73.07c-1.4,1.41-7.41,10.98-9.57,13.93-2.42,3.31-4.14,7.41-7.5,10l11.49-19.01c3.62-1.79,3.39-3.77,5.49-6.51.93-1.21,2.52-2.25,3.52-3.48,1.14.36.51,2.18.01,3.01-1.08,1.79-3.24,1.85-3.45,2.05h.01Z"/>
  <path class="cls-3" d="M297.12,34l-17.98-11.52c-3.13-1.89-8.01-2.04-10.02-5.48l25.01,12.49,2.99,4.51Z"/>
  <path class="cls-3" d="M380.12,157c-1.33.43-3.46-1.09-2.94-2.42,1.21-3.06-2.42-8.83-3.01-12.21-.17-1,.75-1.47.87-2.03.21-1.01-1.58-2.66-.92-4.34l2.88,6.61,3.11,14.38h.01Z"/>
  <path class="cls-3" d="M366.09,276.95c-.23.2-1.49-.09-1.99.5-.89.51-.77,1.33-1,2.03-.44,1.35.05,3.19-1.96,1.01,1.93-3.49,3.47-7.24,5.12-10.88,2.87-6.32,5.64-12.59,7.76-19.24l4.61-19.39.54,5.54c-2.16,10.13-6.12,19.24-9.93,29.07-.71,1.84-2.7,10.94-3.15,11.34v.02Z"/>
  <path class="cls-3" d="M230.12,4c.03,2.21-2.13.62-3,.5-1.81-.24-3.59-.38-5.38-.62-.4-.05-1.01-.78-2.08-.92-2.67-.34-5.84.89-8.15-.85l-7.38-1.12c3.72.29,7.89-.4,11.54-.04,1.06.1,1.65.85,2.09.91,4.15.58,8.25,1.05,12.38,2.12l-.02.02Z"/>
  <path class="cls-3" d="M192.12,5c1.62-4.08,5.37-1.14,7.46-.96,1.6.13,3.37-.08,5.04-.04,1.22.03,3.73-.75,3.5,1h-16Z"/>
  <path class="cls-3" d="M243.62,7c3.83,2.23,8.74,2.47,12.86,4.14,1.9.77,4.16,1.91,5.64,3.36l-14.35-4.65s-4.15-2.85-4.15-2.85Z"/>
  <path class="cls-2" d="M.12,185l1.8,5.5c-1.33,2.01-.74,4.6-.8,7-.03,1.22.75,3.73-1,3.5v-16Z"/>
  <path class="cls-3" d="M374.12,135c-3.84-1.56-2.86-5.7-4.15-9.35-1.03-2.91-2.77-7.06-4-10s-3.42-5.52-3.86-8.64l4.89,7.61,7.11,20.39h.01Z"/>
  <polygon class="cls-3" points="150.12 380 144.64 380.8 140.12 378 150.12 380"/>
  <path class="cls-3" d="M6.12,173c-.94.34-1.79-2.02-1.97-2.6-.22-.7,1.8-3.67.97-5.4,2.89.89,1.17,1.71,1.11,2.6-.12,1.81-.14,3.6-.11,5.4Z"/>
  <path class="cls-3" d="M109.12,367c-2.33-.44-5.9-1.73-7-4,2.7.54,5.89,1.12,7,4Z"/>
  <path class="cls-3" d="M179.12,1l-8,2c-.39-2.72.44-1.95,2.5-2,1.83-.04,3.68.03,5.5,0Z"/>
  <path class="cls-2" d="M2.12,182c-1.75.23-.97-2.28-1-3.5-.05-2.17.03-4.34,0-6.5,1.75-.23.97,2.28,1,3.5.05,2.17-.03,4.34,0,6.5Z"/>
  <path class="cls-3" d="M59.12,55c.24,2.38-1.71,3.3-3.42,3.99-1.36.55.3,2.35-1.58,2.01-.31-1.69.95-2.42,1.87-3.63.85-1.13.82-2.87,3.13-2.37Z"/>
  <polygon class="cls-3" points="200.12 0 196.09 1.54 192.12 1 200.12 0"/>
  <polygon class="cls-3" points="22.62 104 21.67 108.04 17.62 114 19.58 108.96 22.62 104"/>
  <polygon class="cls-3" points="354.21 92.94 358.99 99.63 361.62 106 347.12 83.5 350.64 85.99 354.21 92.94"/>
  <path class="cls-3" d="M378.12,175c-1.8.21-.89-2.23-1-3.5-.25-2.91-.83-5.61-1-8.5l2.04,5.46-.04,6.54Z"/>
  <polygon class="cls-3" points="135.12 376 131.7 376.92 129.12 374 135.12 376"/>
  <path class="cls-3" d="M380.12,192c-.8,1.65-.36,3.04-1,5h-1v-5h2Z"/>
  <path class="cls-3" d="M3.12,171l-2-.5,2.12-10.88,1.88-4.62c-.23,5.48-2.31,10.55-2,16Z"/>
  <rect class="cls-3" x="183.12" width="7" height="1"/>
  <rect class="cls-3" x="378.12" y="181" width="1" height="7"/>
  <path class="cls-3" d="M37.12,306c-2.66.52-1.63-.63-2.48-2.02-1.28-2.09-3.25-3.7-3.52-5.98,1.62.18,6.35,7.64,6,8Z"/>
  <polygon class="cls-3" points="7.12 147 6.62 144 9.12 139 7.12 147"/>
  <path class="cls-3" d="M26.12,287c-.08,1.22.55,2.37,1.12,3.38,1.16,2.05,3.73,4.09,3.88,6.62-3.08-2.31-4.6-6.54-7-9.5l2-.5Z"/>
  <path class="cls-3" d="M123.12,373l-5-2.5.5-.5c1.23,1.54,4,.47,4.5,3Z"/>
  <path class="cls-3" d="M376.12,156l-1.88-3.62-1.12-6.38c.97-.4,1.81,2.16,1.9,2.6.45,2.21.59,5.07,1.1,7.4Z"/>
  <rect class="cls-3" x="213.12" y="380" width="4" height="1"/>
  <rect class="cls-3" x="380.12" y="221" width="1" height="4"/>
  <path class="cls-3" d="M24.12,103h-1c-.71-.85,2.37-5.77,3-5,.46,2.22-2.32,2.65-2,5Z"/>
  <path class="cls-3" d="M309.12,347c-2.07-.4-2.68,1.6-4,2.5l-6,3,9.5-7.5.5,2Z"/>
  <path class="cls-3" d="M51.12,64c-.65-1.25,1.6-3.49,2-3,.65,1.25-1.6,3.49-2,3Z"/>
  <rect class="cls-3" x="5.12" y="148" width="1" height="3"/>
  <polygon class="cls-3" points="50.12 66 48.12 66 49.62 64 50.12 64 50.12 66"/>
  <polygon class="cls-3" points="241.12 379 241.12 380 235.12 381 235.12 380 241.12 379"/>
  <path class="cls-3" d="M375.12,157h1l1,3.5-.5.5c-1.54-1.1-1.73-2.14-1.5-4Z"/>
  <rect class="cls-3" x="9.12" y="135" width="1" height="3"/>
  <path class="cls-3" d="M242.12,7v1c-1.82.09-2.96-1.49-5-1v-1l5,1Z"/>
  <path class="cls-3" d="M11.12,134h-1c-.09-1.82,1.49-2.96,1-5h1l-1,5Z"/>
  <path class="cls-3" d="M65.12,55l7.5-8c.76,1-1.34,2.31-2,3s-5.1,5.4-5.5,5Z"/>
  <rect class="cls-3" x="233.12" y="5" width="3" height="1"/>
  <path class="cls-3" d="M268.12,16v1c-1.63.32-2.35-1.25-4-1v-1l4,1Z"/>
  <rect class="cls-3" x="379.12" y="226" width="1" height="2"/>
  <rect class="cls-3" x="212.12" y="4" width="2" height="1"/>
  <rect class="cls-3" x="7.12" y="149" width="1" height="2"/>
  <rect class="cls-3" x="8.12" y="145" width="1" height="2"/>
  <rect class="cls-3" x="372.12" y="142" width="1" height="2"/>
  <rect class="cls-3" x="371.12" y="139" width="1" height="2"/>
  <rect class="cls-3" x="124.12" y="373" width="2" height="1"/>
  <polygon class="cls-3" points="116.12 369 116.12 370 113.12 368.5 113.62 368 116.12 369"/>
  <rect class="cls-3" x="13.12" y="133" width="1" height="2"/>
  <polygon class="cls-3" points="16.12 116 17.12 116 15.62 119 15.12 118.5 16.12 116"/>
  <rect class="cls-3" x="21.12" y="115" width="1" height="2"/>
  <path class="cls-3" d="M45.62,311c.65,0,.65,1,0,1s-.65-1,0-1Z"/>
  <path class="cls-3" d="M37.62,299c.65,0,.65,1,0,1s-.65-1,0-1Z"/>
  <rect class="cls-3" x="35.78" y="295.94" width=".7" height="2.12" transform="translate(-199.43 112.53) rotate(-45)"/>
  <rect class="cls-3" x="33.77" y="292.94" width=".7" height="2.12" transform="translate(-197.9 110.24) rotate(-45)"/>
  <path class="cls-3" d="M345.62,80c.65,0,.65,1,0,1s-.65-1,0-1Z"/>
  <path class="cls-3" d="M286.62,356c.65,0,.65,1,0,1s-.65-1,0-1Z"/>
  <path class="cls-3" d="M14.62,121c.65,0,.65,1,0,1s-.65-1,0-1Z"/>
  <path class="cls-3" d="M29.62,287c.65,0,.65,1,0,1s-.65-1,0-1Z"/>
  <path class="cls-3" d="M13.62,125c.65,0,.65,1,0,1s-.65-1,0-1Z"/>
  <path class="cls-3" d="M28.62,285c.65,0,.65,1,0,1s-.65-1,0-1Z"/>
  <path class="cls-3" d="M63.62,56c.65,0,.65,1,0,1s-.65-1,0-1Z"/>
  <path class="cls-3" d="M23.62,276c.65,0,.65,1,0,1s-.65-1,0-1Z"/>
  <path class="cls-3" d="M111.62,367c.65,0,.65,1,0,1s-.65-1,0-1Z"/>
  <path class="cls-3" d="M369.62,133c.65,0,.65,1,0,1s-.65-1,0-1Z"/>
  <path class="cls-3" d="M139.62,374c.65,0,.65,1,0,1s-.65-1,0-1Z"/>
  <path class="cls-3" d="M240.62,375c.65,0,.65,1,0,1s-.65-1,0-1Z"/>
  <path class="cls-3" d="M137.62,377c.65,0,.65,1,0,1s-.65-1,0-1Z"/>
  <path class="cls-3" d="M304.62,42c.65,0,.65,1,0,1s-.65-1,0-1Z"/>
  <path class="cls-3" d="M364.62,266c.65,0,.65,1,0,1s-.65-1,0-1Z"/>
  <path class="cls-3" d="M211.62,381c.65,0,.65,1,0,1s-.65-1,0-1Z"/>
  <path class="cls-3" d="M370.62,136c.65,0,.65,1,0,1s-.65-1,0-1Z"/>
  <path class="cls-3" d="M216.62,5c.65,0,.65,1,0,1s-.65-1,0-1Z"/>
  <path class="cls-3" d="M379.62,229c.65,0,.65,1,0,1s-.65-1,0-1Z"/>
  <path class="cls-3" d="M4.62,152c.65,0,.65,1,0,1s-.65-1,0-1Z"/>
  <path class="cls-3" d="M378.62,176c.65,0,.65,1,0,1s-.65-1,0-1Z"/>
  <path class="cls-3" d="M254.62,14c.65,0,.65,1,0,1s-.65-1,0-1Z"/>
  <path class="cls-3" d="M18.63,179c-.65,0-.65-1,0-1s.65,1,0,1Z"/>
  <path class="cls-3" d="M28.63,135c-.65,0-.65-1,0-1s.65,1,0,1Z"/>
  <path class="cls-3" d="M24.25,171.62c-1.98,15.78-1.89,32.6.92,47.85.35,1.92.55,4.29-2.04,3.54.65-2.21-.76-3.76-1.04-5.47-.98-6.14-.67-14.38-.93-21.07-.73-18.55,1.18-36.75,7.83-55.12.58-1.62-.85-2.84,2.14-2.35,1.01,2.36-1.72,3.67-1.82,4.5-1.11,8.91-3.9,18.82-5.06,28.12Z"/>
  <path class="cls-3" d="M38.13,118.99c-.84,2.8-.68,5.63-2.89,7.61l-3.11,11.39h0c-2.88.6-2.06-1.27-1.91-3.41,2-4.33,3.96-8.65,6.08-12.92.57-1.16.5-2.89,1.83-2.67Z"/>
  <rect class="cls-3" x="39.13" y="116" width="1" height="2"/>
  <path class="cls-3" d="M40.63,115c-.65,0-.65-1,0-1s.65,1,0,1Z"/>
  <polygon class="cls-3" points="43.12 111.5 41.62 113 41.13 112.5 42.63 111 43.12 111.5"/>
  <path class="cls-3" d="M43.13,110c-.65-1.25,1.6-3.49,2-3,.65,1.25-1.6,3.49-2,3Z"/>
  <rect class="cls-3" x="138.13" y="26" width="2" height="1"/>
  <path class="cls-3" d="M141.63,26c-.65,0-.65-1,0-1s.65,1,0,1Z"/>
  <rect class="cls-3" x="152.13" y="364" width="3" height="1"/>
  <path class="cls-3" d="M162.13,365v1c-2.28.44-3.73-1.41-6-1v-1l6,1Z"/>
  <polygon class="cls-3" points="167.13 364 164.13 364 164.13 363.5 165.63 362 167.13 364"/>
  <rect class="cls-3" x="168.13" y="363" width="2" height="1"/>
  <rect class="cls-3" x="171.13" y="363" width="1" height="2"/>
  <path class="cls-3" d="M183.13,365l-3.64.88c-1.47-.76-4.99.39-5.36-1.88l9,1Z"/>
  <path class="cls-3" d="M185.63,18c-.65,0-.65-1,0-1s.65,1,0,1Z"/>
  <path class="cls-3" d="M192.63,368c-.65,0-.65-1,0-1s.65,1,0,1Z"/>
  <rect class="cls-3" x="227.13" y="21" width="3" height="1"/>
  <rect class="cls-3" x="231.13" y="22" width="2" height="1"/>
  <rect class="cls-3" x="235.13" y="23" width="2" height="1"/>
  <path class="cls-3" d="M240.77,25.86c-.97-.36-2.9-.7-2.64-1.86l7,2c.31,1.94-3.75.09-4.36-.14Z"/>
  <path class="cls-3" d="M246.63,28c-.65,0-.65-1,0-1s.65,1,0,1Z"/>
  <path class="cls-3" d="M248.63,358c-.65,0-.65-1,0-1s.65,1,0,1Z"/>
  <path class="cls-3" d="M259.12,351.01l-3.6,2.88c-1.98-.07-3.35,1.3-5,2-.78.33-1.91-.05-2.8.2-1.6.45-4.85,3.13-8.21,3.85-1.12.24-1.89-1.39-3.37-.94l1,2c-1.13,0-2.24-.1-3.37.13-4.62.94-5.41,1.76-10.13,1.79-3.49.03-8.71,1.82-12.46,2.12l-.08,1.91c-5.78,2.6-10.14-.47-15.42-.99-3.34-.33-7.13.31-10.54.04-.59-4.21,3.84-1.1,5.48-.95,1.53.14,5.24-.97,7-1.08,12.97-.82,25.29-1.43,37.9-5.09l23.6-7.87Z"/>
  <path class="cls-3" d="M286.13,294h-38l-58-119c-1.62-.26-1.56.13-2.12,1.36-15.89,35.13-33.37,70.17-50.03,105-1.99,4.17-4.69,8.28-5.86,12.64h-36l76.34-151.39-29.18-58.26c-.51-1.19-1.42-1.93-1.15-3.35h38.5l105.5,213Z"/>
  <path class="cls-3" d="M332.12,96c-1.81,1.63-6.51-6.81-7.48-8.01-3.38-4.18-9.79-12.47-13.5-15.52-3.29-2.7-6.59-6.39-11-10-1.65-1.35-9.05-7.96-10.98-9-1.36-.74-3-.19-4.03-1.96,1.99-2.49,1.49-.91,2.99,0,8.95,5.51,17.07,12.94,24.51,20.48,5.99,6.08,11.57,12.88,17,20,.86,1.13,1.54,2.83,2.49,4.01Z"/>
  <path class="cls-3" d="M347.12,124c-1.58-.25-1.86-1.88-2.48-3.01-3.49-6.25-6.59-12.9-9.97-19.03-.88-1.6-3.97-2.38-3.54-4.96,2.08-.39,2.37.93,3.16,2.34,3.69,6.57,8.23,12.54,11.71,19.29.96,1.87,1.45,3.19,1.12,5.37Z"/>
  <path class="cls-3" d="M350.63,136c-.65,0-.65-1,0-1s.65,1,0,1Z"/>
  <path class="cls-3" d="M354.13,137c-1.29.23-1.32-1.53-1.84-2.65s-1.28-2.05-1.16-3.34l-2,3-2-9c2.43.19,1.85,3.8,2.04,3.96h0c.16.13,1.25-.04,1.99.48.45.32,2.07,2.96,2.97,4.05,1.47,1.77-.21,1.47,0,3.5Z"/>
  <path class="cls-3" d="M354.63,140c-.65,0-.65-1,0-1s.65,1,0,1Z"/>
  <path class="cls-3" d="M355.13,150c-3.27-1.85-3.06-6.84-3-10l1.84,3.66,1.16,6.34Z"/>
  <path class="cls-3" d="M355.13,243c.02,3.05-1.88,5.77-2.88,8.62-5.08,14.45-20.8,46.94-32.59,56.41-1.12.89-2.34.93-2.48,1.02-.29.29-1.15,3.99-1.09,4.91l-1.87.11-.11,1.89-2.95.07c-4.5,6.49-13.1,12.69-19.03,17.44-1.88,1.51-3.4,4.3-5.99,2.52l-.03,2.99c-2.99-.4-6.75,4.49-8.57,4.99-1.01.28-2.13-1.33-2.39-.98-.43,4.3-6.93,5.42-10.52,7.01h-4.5c1.43,0,2.81-.78,4.01-1.49,10.3-6.12,20.56-11.71,29.98-19.02,26.52-20.59,43.3-44.97,55.87-76.13,1.33-3.3,1.6-8.27,5.14-10.36Z"/>
  <path class="cls-3" d="M358.09,226.46c-.42,5.23,1.17,11.94-3.96,15.54-.06-1.84,1.11-2.28.88-4.39-.41-3.78,1.17-4.79,2-8.23.3-1.24-.08-2.52.24-3.76l1.88-5.62c.83,2.43-.9,4.76-1.04,6.46Z"/>
  <path class="cls-3" d="M360.13,153v4h-1c.34-1.69-.28-2.62-1-4h2Z"/>
  <path class="cls-3" d="M362.08,190.37c-.89,4.34-.83,9.56-.97,14.11-.1,3.22.76,4.1.14,7.14-.43,2.09-.91,4.27-1.1,6.39h-.02c-3.62.57-1.14-2.05-.98-4.49.62-9.56,1.53-19.28,1.02-29.05-.36-6.75-1.91-16.64-3.14-23.86-.49-2.85-3.03-5.86-1.89-9.61.94-.43,1.86,2.3,1.91,2.59,1.79,11.07,5.1,22.08,4.04,32.89-.19,1.88,1.18,2.96.99,3.89Z"/>
  <path class="cls-3" d="M6.12,235l-2.04-8.46-.96-11.54c3.48,1.44,1.62,6.53,1.96,9.54.21,1.82,1.54,4.94,2.04,6.96.45,1.83,1.73,2.51-1,3.5Z"/>
  <path class="cls-3" d="M7.12,203c-.6,7.57,1.23,14.57,2,22-.94.44-1.87-2.34-1.91-2.59-.25-1.69.15-3.41-.05-4.95-.15-1.16-.98-1.83-1.07-2.93-.28-3.51,1.04-8.02-.96-11.04l2-.5h-.01Z"/>
  <path class="cls-3" d="M176.12,6l-10,2c1.57-3.64,6.94-1.44,10-2Z"/>
  <path class="cls-3" d="M101.12,29l-6,4c-.46-2.54.46-1.71,2.01-2.48,1.31-.65,2.44-1.72,3.99-1.52Z"/>
  <path class="cls-3" d="M327.12,60c-1.24,1.1-6.34-4.7-6-5,1.78-.69,6.3,4.74,6,5Z"/>
  <path class="cls-3" d="M184.12,5v1c-2.32-.53-3.87.78-6,1v-2h6Z"/>
  <rect class="cls-3" x="155.12" y="377" width="4" height="1"/>
  <path class="cls-3" d="M28.12,242v3h-1c.37-1.44-.7-1.85-1-3h2Z"/>
  <rect class="cls-3" x="9.12" y="231" width="1" height="3"/>
  <rect class="cls-3" x="161.12" y="378" width="3" height="1"/>
  <rect class="cls-3" x="151.12" y="376" width="3" height="1"/>
  <rect class="cls-3" x="239.12" y="11" width="2" height="1"/>
  <rect class="cls-3" x="242.12" y="12" width="2" height="1"/>
  <polygon class="cls-3" points="26.12 236 25.12 236 24.12 233.5 24.62 233 26.12 236"/>
  <polygon class="cls-3" points="344.12 300 345.12 300 345.12 301.5 342.62 304 342.12 303.5 344.12 300"/>
  <path class="cls-3" d="M341.62,305c.65,0,.65,1,0,1s-.65-1,0-1Z"/>
  <path class="cls-3" d="M377.62,201c.65,0,.65,1,0,1s-.65-1,0-1Z"/>
  <path class="cls-3" d="M319.62,52c.65,0,.65,1,0,1s-.65-1,0-1Z"/>
  <path class="cls-3" d="M23.62,228c.65,0,.65,1,0,1s-.65-1,0-1Z"/>
  <path class="cls-3" d="M149.62,22c.65,0,.65,1,0,1s-.65-1,0-1Z"/>
  <path class="cls-3" d="M286.13,294h-38l-58-119c-1.62-.26-1.56.13-2.12,1.36-15.89,35.13-33.37,70.17-50.03,105-1.99,4.17-4.69,8.28-5.86,12.64h-36l76.34-151.39-29.18-58.26c-.51-1.19-1.42-1.93-1.15-3.35h38.5l105.5,213Z"/>
  <path class="cls-3" d="M24.25,171.62c-1.98,15.78-1.89,32.6.92,47.85.35,1.92.55,4.29-2.04,3.54.65-2.21-.76-3.76-1.04-5.47-.98-6.14-.67-14.38-.93-21.07-.73-18.55,1.18-36.75,7.83-55.12.58-1.62-.85-2.84,2.14-2.35,1.01,2.36-1.72,3.67-1.82,4.5-1.11,8.91-3.9,18.82-5.06,28.12Z"/>
  <path class="cls-3" d="M355.13,243c.02,3.05-1.88,5.77-2.88,8.62-5.08,14.45-20.8,46.94-32.59,56.41-1.12.89-2.34.93-2.48,1.02-.29.29-1.15,3.99-1.09,4.91l-1.87.11-.11,1.89-2.95.07c-4.5,6.49-13.1,12.69-19.03,17.44-1.88,1.51-3.4,4.3-5.99,2.52l-.03,2.99c-2.99-.4-6.75,4.49-8.57,4.99-1.01.28-2.13-1.33-2.39-.98-.43,4.3-6.93,5.42-10.52,7.01h-4.5c1.43,0,2.81-.78,4.01-1.49,10.3-6.12,20.56-11.71,29.98-19.02,26.52-20.59,43.3-44.97,55.87-76.13,1.33-3.3,1.6-8.27,5.14-10.36Z"/>
  <path class="cls-3" d="M259.12,351.01l-3.6,2.88c-1.98-.07-3.35,1.3-5,2-.78.33-1.91-.05-2.8.2-1.6.45-4.85,3.13-8.21,3.85-1.12.24-1.89-1.39-3.37-.94l1,2c-1.13,0-2.24-.1-3.37.13-4.62.94-5.41,1.76-10.13,1.79-3.49.03-8.71,1.82-12.46,2.12l-.08,1.91c-5.78,2.6-10.14-.47-15.42-.99-3.34-.33-7.13.31-10.54.04-.59-4.21,3.84-1.1,5.48-.95,1.53.14,5.24-.97,7-1.08,12.97-.82,25.29-1.43,37.9-5.09l23.6-7.87Z"/>
  <path class="cls-3" d="M362.08,190.37c-.89,4.34-.83,9.56-.97,14.11-.1,3.22.76,4.1.14,7.14-.43,2.09-.91,4.27-1.1,6.39h-.02c-3.62.57-1.14-2.05-.98-4.49.62-9.56,1.53-19.28,1.02-29.05-.36-6.75-1.91-16.64-3.14-23.86-.49-2.85-3.03-5.86-1.89-9.61.94-.43,1.86,2.3,1.91,2.59,1.79,11.07,5.1,22.08,4.04,32.89-.19,1.88,1.18,2.96.99,3.89Z"/>
  <path class="cls-3" d="M332.12,96c-1.81,1.63-6.51-6.81-7.48-8.01-3.38-4.18-9.79-12.47-13.5-15.52-3.29-2.7-6.59-6.39-11-10-1.65-1.35-9.05-7.96-10.98-9-1.36-.74-3-.19-4.03-1.96,1.99-2.49,1.49-.91,2.99,0,8.95,5.51,17.07,12.94,24.51,20.48,5.99,6.08,11.57,12.88,17,20,.86,1.13,1.54,2.83,2.49,4.01Z"/>
  <path class="cls-3" d="M347.12,124c-1.58-.25-1.86-1.88-2.48-3.01-3.49-6.25-6.59-12.9-9.97-19.03-.88-1.6-3.97-2.38-3.54-4.96,2.08-.39,2.37.93,3.16,2.34,3.69,6.57,8.23,12.54,11.71,19.29.96,1.87,1.45,3.19,1.12,5.37Z"/>
  <path class="cls-3" d="M38.13,118.99c-.84,2.8-.68,5.63-2.89,7.61l-3.11,11.39h0c-2.88.6-2.06-1.27-1.91-3.41,2-4.33,3.96-8.65,6.08-12.92.57-1.16.5-2.89,1.83-2.67Z"/>
  <path class="cls-3" d="M358.09,226.46c-.42,5.23,1.17,11.94-3.96,15.54-.06-1.84,1.11-2.28.88-4.39-.41-3.78,1.17-4.79,2-8.23.3-1.24-.08-2.52.24-3.76l1.88-5.62c.83,2.43-.9,4.76-1.04,6.46Z"/>
  <path class="cls-3" d="M354.13,137c-1.29.23-1.32-1.53-1.84-2.65s-1.28-2.05-1.16-3.34l-2,3-2-9c2.43.19,1.85,3.8,2.04,3.96h0c.16.13,1.25-.04,1.99.48.45.32,2.07,2.96,2.97,4.05,1.47,1.77-.21,1.47,0,3.5Z"/>
  <path class="cls-3" d="M355.13,150c-3.27-1.85-3.06-6.84-3-10l1.84,3.66,1.16,6.34Z"/>
  <path class="cls-3" d="M183.13,365l-3.64.88c-1.47-.76-4.99.39-5.36-1.88l9,1Z"/>
  <path class="cls-3" d="M360.13,153v4h-1c.34-1.69-.28-2.62-1-4h2Z"/>
  <polygon class="cls-3" points="167.13 364 164.13 364 164.13 363.5 165.63 362 167.13 364"/>
  <path class="cls-3" d="M43.13,110c-.65-1.25,1.6-3.49,2-3,.65,1.25-1.6,3.49-2,3Z"/>
  <rect class="cls-3" x="227.13" y="21" width="3" height="1"/>
  <rect class="cls-3" x="152.13" y="364" width="3" height="1"/>
  <path class="cls-3" d="M162.13,365v1c-2.28.44-3.73-1.41-6-1v-1l6,1Z"/>
  <path class="cls-3" d="M240.77,25.86c-.97-.36-2.9-.7-2.64-1.86l7,2c.31,1.94-3.75.09-4.36-.14Z"/>
  <rect class="cls-3" x="231.13" y="22" width="2" height="1"/>
  <rect class="cls-3" x="235.13" y="23" width="2" height="1"/>
  <rect class="cls-3" x="138.13" y="26" width="2" height="1"/>
  <rect class="cls-3" x="171.13" y="363" width="1" height="2"/>
  <rect class="cls-3" x="168.13" y="363" width="2" height="1"/>
  <rect class="cls-3" x="39.13" y="116" width="1" height="2"/>
  <polygon class="cls-3" points="43.12 111.5 41.62 113 41.13 112.5 42.63 111 43.12 111.5"/>
  <path class="cls-3" d="M40.63,115c-.65,0-.65-1,0-1s.65,1,0,1Z"/>
  <path class="cls-3" d="M18.63,179c-.65,0-.65-1,0-1s.65,1,0,1Z"/>
  <path class="cls-3" d="M248.63,358c-.65,0-.65-1,0-1s.65,1,0,1Z"/>
  <path class="cls-3" d="M192.63,368c-.65,0-.65-1,0-1s.65,1,0,1Z"/>
  <path class="cls-3" d="M28.63,135c-.65,0-.65-1,0-1s.65,1,0,1Z"/>
  <path class="cls-3" d="M246.63,28c-.65,0-.65-1,0-1s.65,1,0,1Z"/>
  <path class="cls-3" d="M350.63,136c-.65,0-.65-1,0-1s.65,1,0,1Z"/>
  <path class="cls-3" d="M354.63,140c-.65,0-.65-1,0-1s.65,1,0,1Z"/>
  <path class="cls-3" d="M141.63,26c-.65,0-.65-1,0-1s.65,1,0,1Z"/>
  <path class="cls-3" d="M185.63,18c-.65,0-.65-1,0-1s.65,1,0,1Z"/>
  <path class="cls-3" d="M204.62,366c.65,0,.65,1,0,1s-.65-1,0-1Z"/>
  <g>
    <path class="cls-1" d="M170.76,23.07c-2.04.38-4.24.96-6.48,1.59,2.6-.44,5.22-.83,7.85-1.15-.42-.27-.85-.54-1.37-.44Z"/>
    <path class="cls-1" d="M360.04,143.59c-2.31-6.17-3.68-12.82-6.05-18.95-5.57-14.39-17.52-33.68-27.35-45.65-2.01-2.45-5.11-4.63-7.04-6.98-1.93-2.35-1.8-1.51-2.39-2.07h-.03c-2.02-1.93-4.9-6.61-8.06-9.46-36.96-33.34-88.62-50.2-137.55-43.52-3.92.54-8.21,2.06-12.09,2.91-2.18.48-5.06.62-7.37,1.13l4,1-3,2,14.97-2.03.05-1.96c6.9,3.6,15.71-1.08,21.48-1.08,2,0,4.59,1.04,7.98,1.04,25.77-.03,55.46,10.28,77.9,23.16l1.55,1.1c34.04,19.24,60.82,49.82,75.2,86.61.63.91,1.38,2.03,1.89,2.65,1.19,1.44.31,1.51.05,2.57.72,2.04,1.42,4.1,2.06,6.18l2.89,3.25.91-1.91ZM185.63,18c-.65,0-.65-1,0-1s.65,1,0,1ZM230.13,22h-3v-1h3v1ZM233.13,23h-2v-1h2v1ZM237.13,24h-2v-1h2v1ZM240.77,25.86c-.97-.36-2.9-.7-2.64-1.86l7,2c.31,1.94-3.75.09-4.36-.14ZM246.63,28c-.65,0-.65-1,0-1s.65,1,0,1Z"/>
    <path class="cls-1" d="M143.84,29.46c1.47-.44,2.94-.86,4.43-1.27-.22,0-.44.02-.66.02-1.23,0-2.3.68-3.77,1.25Z"/>
    <path class="cls-1" d="M50.22,99.49c2.31-3.52,4.74-6.94,7.29-10.27-2.09,2.59-4.06,5.19-5.9,7.78-.54.76-.97,1.61-1.38,2.49Z"/>
    <path class="cls-1" d="M364.26,162.37c-.18-.98-.17-1.92-.09-2.91-1.37-2.68-1.32-6.17-2.14-8.86-.22-.72-.87-2.92-1.9-2.6l.5,4c-.76-.34-1.42-.77-2-1.27.19.75.37,1.51.55,2.27h.94v4h-.03c2.49,11.61,3.81,23.65,3.81,36,0,35.94-11.11,69.28-30.07,96.79-4.76,7.88-9.75,14.68-14.18,18.24-.25.2-.5.34-.74.47-.78.85-1.56,1.69-2.36,2.52-.27,1.14-.5,2.44-.47,2.94l-1.87.11-.11,1.89-2.54.06c-.45.43-.91.87-1.36,1.3-4.68,6.02-12.54,11.72-18.08,16.15-1.83,1.47-3.32,4.14-5.79,2.64-.07.04-.13.09-.2.13l-.03,2.74c-2.99-.4-6.75,4.49-8.57,4.99-1.01.28-2.13-1.33-2.39-.98-.43,4.3-6.93,5.42-10.52,7.01h-4.21c-3.16,1.36-6.36,2.62-9.62,3.78l8.32-2.77-3.6,2.88c-1.98-.07-3.35,1.3-5,2-.78.33-1.91-.05-2.8.2-1.6.45-4.85,3.13-8.21,3.85-1.12.24-1.89-1.39-3.37-.94l1,2c-1.13,0-2.24-.1-3.37.13-4.62.94-5.41,1.76-10.13,1.79-3.49.03-8.71,1.82-12.46,2.12l-.08,1.91c-5.78,2.6-10.14-.47-15.42-.99-3.34-.33-7.13.31-10.54.04-.59-4.21,3.84-1.1,5.48-.95,1.53.14,5.24-.97,7-1.08,12.97-.82,25.29-1.43,37.9-5.09l7.86-2.62c-15.89,4.88-32.76,7.52-50.25,7.52-13.52,0-26.68-1.58-39.3-4.55,3.34.99,5.28,3.79,9.28,2.79l-.5,2-13.46-2.05-.08-1.91-7.91-.54.96-1.49c-1.91-.32-4.64-.6-6.42-1.1-.89-.25-1.37-1.63-2.14-1.86-2.21-.66-3.48.91-5.44.94l2-2c-1.68-.22-3.93.37-5.44-.06-.77-.22-4.65-4.55-6.52-5.48-4.53-2.25-8.05-3.85-12.65-6.35-1.59-.87-6.66-1.55-7.3-3.7-.23-.78-.06-1.63-.09-2.42-2.19,1.7-2.75.24-4.95-.05.44-2.66-.96-1.55-2.05-2.42-3.91-3.13-11.43-7.63-13.46-10.54-2.19-3.13-5.66-5.1-7.56-7.45-2.77-3.43-4.38-3.06-5.92-4.58-.62-.61-7.17-10.85-8.59-12.93-2-2.94-1.72-1.45-2.41-2.07-.15-.14-.95-3.18-1.06-3.94l-2.99-.02-.02-3.98c-1.1.11-2.65-.52-2.93-1.57-2.15-8.05-9.97-15.87-11.14-24.86l-5.91-13.59c-2.09-.03-.81,1.97-.5,3,.5,1.68.94,3.47,2,4.91l-2.5-2.91c-1.67-.3-1.14,2.57-.91,3.42,1.44,5.34,6.33,15.86,9.04,20.96,8.52,16.03,21.12,30.94,32.34,43.63.86.98,2.03,2.16,3,3.02,30.63,27.11,61.67,40.89,101.92,46.08.61.07,1.88,2.02,2.61.39l-2-2.5,8,1-2,2c1.49.11,3.05-.16,4.53-.03,1.85.17,6.3,1.23,7.99,1.08,6.14-.56,12.8-1.42,18.94-2.09,102.38-11.15,170.93-106.62,152.66-207.59ZM155.13,365h-3v-1h3v1ZM162.13,366c-2.28.44-3.73-1.41-6-1v-1l6,1v1ZM164.13,364v-.5l1.5-1.5,1.5,2h-3ZM170.13,364h-2v-1h2v1ZM172.13,365h-1v-2h1v2ZM179.49,365.88c-1.47-.76-4.99.39-5.36-1.88l9,1-3.64.88ZM192.63,368c-.65,0-.65-1,0-1s.65,1,0,1ZM248.63,358c-.65,0-.65-1,0-1s.65,1,0,1Z"/>
    <path class="cls-1" d="M134.83,32.44c-8.93,2.89-17.94,7.16-26.69,12.41,8.47-4.87,17.39-9.03,26.69-12.41Z"/>
    <path class="cls-1" d="M137.03,31.66c1.7-.59,3.41-1.16,5.13-1.7-.74.16-1.57.25-2.54.22-.41,0-1.67.99-2.59,1.48Z"/>
    <path class="cls-1" d="M265.43,347.75c-1.64.77-3.29,1.51-4.96,2.23,1.31-.11,2.56-.81,3.67-1.47.43-.26.86-.51,1.29-.76Z"/>
    <path class="cls-1" d="M34.22,130.33c.68-1.72,1.4-3.43,2.13-5.12-.29.49-.64.96-1.11,1.39l-1.02,3.73Z"/>
    <path class="cls-1" d="M57.34,296.56c22.39,30.06,54.17,52.24,92.41,62.33,1.15.31,2.33,0,3.49.19-38.79-9.28-72.44-31.8-95.9-62.52Z"/>
    <path class="cls-1" d="M149.63,24.01l-4.51.99.5-2c-2.6-.48-4.78,1.18-7.12,1.88-42.36,12.69-79.27,42.84-100.25,81.75-2.96,5.51-4.99,11.46-8.12,16.88l4-2-3.05,8.95-1.95,1.55-.51-4.01c-1.14,1.87-1.04,4.52-1.58,6.42-.54,1.9-2.14,4.7-3.04,7.96-4.19,15.24-7.37,31.95-7.91,47.1-.4,11.22.69,22.35,2.91,33.16.23,1.13.13,2.24.13,3.37l2.5-2,2,3,.5-3c.39,0,.8.24,1.15.56-.11-.6-.23-1.19-.33-1.79-.22.23-.53.37-.96.37-.25,0-.53-.04-.86-.14.65-2.21-.76-3.76-1.04-5.47-.98-6.14-.67-14.38-.93-21.07-.73-18.55,1.18-36.75,7.83-55.12.58-1.61-.83-2.82,2.09-2.36.1-.29.19-.59.29-.89-1.95.1-1.28-1.6-1.15-3.52,2-4.33,3.96-8.65,6.08-12.92.57-1.16.5-2.89,1.83-2.67-.48,1.61-.65,3.23-1.11,4.69.85-1.91,1.74-3.8,2.65-5.68h-.54v-2h1v1.08c.9-1.8,1.82-3.6,2.78-5.37l-1.29,1.29-.49-.5,1.5-1.5.43.44c.33-.61.67-1.21,1.01-1.81-.3.27-.59.44-.78.44-.07,0-.12-.02-.16-.07-.65-1.25,1.6-3.49,2-3,.09.17.12.36.11.55.44-.75.88-1.5,1.33-2.24-.29.25-.6.49-.95.7l11.58-19.94,1.85-.12c9.85-12.45,21.26-24.58,34.07-33.44,16.77-11.6,31.39-18.44,50.38-24.62,1.81-.59,4.5-1.31,6.05-1.95.88-.37,2.93-2.31.08-1.93ZM18.63,179c-.65,0-.65-1,0-1s.65,1,0,1ZM28.63,135c-.65,0-.65-1,0-1s.65,1,0,1ZM40.63,115c-.65,0-.65-1,0-1s.65,1,0,1ZM140.13,27h-2v-1h2v1ZM141.63,26c-.65,0-.65-1,0-1s.65,1,0,1Z"/>
    <path class="cls-1" d="M29.31,143.5c-.09.73-.21,1.48-.32,2.23.3-1.03.6-2.06.92-3.09-.32.34-.57.62-.6.86Z"/>
    <path class="cls-1" d="M143.84,29.46c-.56.17-1.12.33-1.68.5.62-.13,1.17-.31,1.68-.5Z"/>
    <path class="cls-1" d="M352.13,140c-.06,3.16-.27,8.15,3,10l-1.16-6.34-1.84-3.66Z"/>
    <path class="cls-1" d="M260.13,350h.29s.03-.02.05-.02c-.11,0-.23.02-.34.02Z"/>
    <path class="cls-1" d="M350.63,135c-.65,0-.65,1,0,1s.65-1,0-1Z"/>
    <path class="cls-1" d="M334.67,101.96c3.38,6.13,6.48,12.78,9.97,19.03.62,1.13.9,2.76,2.48,3.01.33-2.18-.16-3.5-1.12-5.37-3.48-6.75-8.02-12.72-11.71-19.29-.79-1.41-1.08-2.73-3.16-2.34-.43,2.58,2.66,3.36,3.54,4.96Z"/>
    <path class="cls-1" d="M354.63,139c-.65,0-.65,1,0,1s.65-1,0-1Z"/>
    <path class="cls-1" d="M164.28,24.66c-5.43.92-10.77,2.11-16.01,3.53,4.73-.14,10.53-1.99,16.01-3.53Z"/>
    <path class="cls-1" d="M153.24,359.08c.2.05.4.1.6.15-.11-.03-.21-.07-.33-.1-.09-.02-.18-.03-.27-.05Z"/>
    <path class="cls-1" d="M26.06,225.58c-.15-.31-.44-.7-.78-1.01,0,0,0,0,0,0h0c4.99,26.7,16.2,51.22,32.06,71.99-13.12-17.62-23.03-37.95-29.1-60.16-.8-2.91-.79-7.96-2.18-10.82Z"/>
    <path class="cls-1" d="M359.13,220l-1.88,5.62c-.32,1.24.06,2.52-.24,3.76-.83,3.44-2.41,4.45-2,8.23.23,2.11-.94,2.55-.88,4.39,5.13-3.6,3.54-10.31,3.96-15.54.14-1.7,1.87-4.03,1.04-6.46Z"/>
    <path class="cls-1" d="M286.14,335.99c.07.05.13.08.2.12,8.51-5.56,16.5-11.85,23.87-18.79.33-.43.65-.86.95-1.29h.41c1.7-1.64,3.36-3.31,4.99-5.01.23-.98.48-1.84.62-1.97.11-.07.88-.12,1.74-.55,5.39-5.87,10.38-12.12,14.92-18.7,7.92-13.09,15.24-29.15,18.41-38.17,1-2.85,2.9-5.57,2.88-8.62-3.54,2.09-3.81,7.06-5.14,10.36-12.57,31.16-29.35,55.54-55.87,76.13-9.03,7-18.82,12.43-28.69,18.26,7.19-3.36,14.11-7.21,20.71-11.51v-.25Z"/>
    <path class="cls-1" d="M357.05,153.59c-.05-.29-.97-3.02-1.91-2.59-1.14,3.75,1.4,6.76,1.89,9.61,1.23,7.22,2.78,17.11,3.14,23.86.51,9.77-.4,19.49-1.02,29.05-.16,2.44-2.64,5.06.98,4.48h.02c.19-2.11.67-4.29,1.1-6.38.62-3.04-.24-3.92-.14-7.14.14-4.55.08-9.77.97-14.11.19-.93-1.18-2.01-.99-3.89,1.06-10.81-2.25-21.82-4.04-32.89Z"/>
    <path class="cls-1" d="M243.38,356.26c2.5-.77,4.97-1.6,7.42-2.47l-7.42,2.47Z"/>
    <path class="cls-1" d="M40.13,117.08c-.15.31-.31.61-.46.92h.46v-.92Z"/>
    <path class="cls-1" d="M132.12,294c1.17-4.36,3.87-8.47,5.86-12.64,16.66-34.83,34.14-69.87,50.03-105,.56-1.23.5-1.62,2.12-1.36l58,119h38l-105.5-213h-38.5c-.27,1.42.64,2.16,1.15,3.35l29.18,58.26-76.34,151.39h36Z"/>
    <path class="cls-1" d="M312.63,71.99c-7.44-7.54-15.56-14.97-24.51-20.48-1.5-.91-1-2.49-2.99,0,1.03,1.77,2.67,1.22,4.03,1.96,1.93,1.04,9.33,7.65,10.98,9,4.41,3.61,7.71,7.3,11,10,3.71,3.05,10.12,11.34,13.5,15.52.97,1.2,5.67,9.64,7.48,8.01-.95-1.18-1.63-2.88-2.49-4.01-5.43-7.12-11.01-13.92-17-20Z"/>
    <path class="cls-1" d="M172.13,23.51c.41.26.83.51,1.35.42,2.5-.45,4.13-.85,7.01-1.05,8.66-.61,18.39-.75,28.16.09,25.59,2.21,48.68,11.22,71.09,24.91,1.81,1.11,3.05,2.57,5.38,2.12l-8.08-5.77c-24.78-14.01-53.41-22.01-83.9-22.01-7.11,0-14.12.44-21,1.29Z"/>
    <path class="cls-1" d="M43.06,111.44c-.05.09-.1.18-.15.28h0s0,0,0,0l.21-.21-.06-.06s0,0,0,0h0Z"/>
    <path class="cls-1" d="M136.51,31.9c.15-.04.33-.13.52-.24-.74.26-1.47.51-2.2.78.56-.18,1.12-.37,1.68-.54Z"/>
    <path class="cls-1" d="M50.22,99.49c-1.26,1.92-2.48,3.86-3.66,5.82,1.84-1.57,2.69-3.77,3.66-5.82Z"/>
    <path class="cls-1" d="M57.51,89.22c13.35-16.59,31.37-32.83,50.62-44.37-19.68,11.31-36.88,26.45-50.62,44.37Z"/>
    <path class="cls-1" d="M37.02,123.68c-.23.51-.45,1.02-.67,1.53.28-.48.5-1,.67-1.53Z"/>
    <path class="cls-1" d="M351.16,129.45c-.74-.52-1.83-.35-1.99-.49h0c-.19-.15.39-3.76-2.04-3.95l2,9,2-3c-.12,1.29.64,2.22,1.16,3.34s.55,2.88,1.84,2.65c-.04-.38-.01-.68.05-.93-.62-1.76-1.26-3.5-1.94-5.23-.47-.69-.89-1.26-1.08-1.4Z"/>
    <path class="cls-1" d="M45.24,107.55c-.4.69-.79,1.38-1.18,2.08,0,0,0,0,0,0,.56-.5,1.15-1.35,1.18-2.08Z"/>
    <path class="cls-1" d="M355.13,141c.03,3.56.85,7.42,3.5,9.73-.73-2.86-1.52-5.69-2.39-8.48l-1.11-1.25Z"/>
    <path class="cls-1" d="M24.95,222.78c.6-.66.45-2.07.22-3.31-2.81-15.25-2.9-32.07-.92-47.85,1.06-8.53,3.49-17.57,4.74-25.89-4.32,15.01-6.63,30.87-6.63,47.27,0,10.16.89,20.11,2.59,29.78,0,0,0,0,0,0,0,0,0,0,0,0Z"/>
    <path class="cls-1" d="M31.13,139s-.03,0-.05,0c-.4,1.21-.8,2.43-1.17,3.65.77-.82,1.94-1.97,1.22-3.64Z"/>
    <path class="cls-1" d="M358.13,153c.72,1.38,1.34,2.31,1,4h.97c-.29-1.34-.59-2.67-.91-4h-1.06Z"/>
    <path class="cls-1" d="M32.13,138h0s2.09-7.67,2.09-7.67c-1.01,2.56-1.96,5.15-2.85,7.77.22-.01.46-.04.76-.1Z"/>
  </g>
</svg>